<svg width="41" height="44" viewBox="0 0 41 44" fill="none" xmlns="http://www.w3.org/2000/svg">
<rect y="3" width="41" height="41" fill="white"/>
<path d="M23.668 32H17.828V31.42C18.1613 31.2733 18.4946 31.1467 18.828 31.04C19.1746 30.92 19.5213 30.82 19.868 30.74V20.92L19.948 19.74C19.5746 19.8867 19.188 19.9933 18.788 20.06C18.388 20.1133 17.9746 20.1333 17.548 20.12L17.448 19.64C18.0613 19.44 18.6946 19.1933 19.348 18.9C20.0013 18.5933 20.608 18.2133 21.168 17.76H21.668V30.74C22.0013 30.82 22.3346 30.92 22.668 31.04C23.0013 31.1467 23.3346 31.2733 23.668 31.42V32Z" fill="#0D0C11"/>
</svg>
