<svg width="41" height="44" viewBox="0 0 41 44" fill="none" xmlns="http://www.w3.org/2000/svg">
<rect y="3" width="41" height="41" fill="white"/>
<path d="M19.3759 32H14.1759V31.42C14.8293 31.1933 15.4426 31.0333 16.0159 30.94V28.14H9.91594V27.68L17.3159 17.76H17.8559V27.1H20.3959V28.14H17.8559V30.94C18.3759 31.0467 18.8826 31.2067 19.3759 31.42V32ZM16.0159 21.96L16.2359 20.52H16.1759L15.3959 21.96L12.0359 26.58L11.2359 27.24L12.6559 27.1H16.0159V21.96ZM23.16 21.9H22.66C22.5133 21.5133 22.36 21.06 22.2 20.54C22.0533 20.02 21.9267 19.5267 21.82 19.06C22.2867 18.66 22.8467 18.3467 23.5 18.12C24.1533 17.88 24.86 17.76 25.62 17.76C26.2867 17.76 26.86 17.8533 27.34 18.04C27.82 18.2267 28.2133 18.48 28.52 18.8C28.84 19.12 29.0733 19.4933 29.22 19.92C29.3667 20.3333 29.44 20.7667 29.44 21.22C29.44 21.9667 29.2667 22.7333 28.92 23.52C28.5733 24.3067 28.14 25.0733 27.62 25.82C27.1133 26.5533 26.56 27.2467 25.96 27.9C25.36 28.5533 24.8067 29.1267 24.3 29.62L23.46 30.4V30.48L24.58 30.36H28.02L29 28.12H29.5C29.5267 28.4133 29.5533 28.7333 29.58 29.08C29.6067 29.4267 29.6267 29.78 29.64 30.14C29.6667 30.4867 29.6867 30.8267 29.7 31.16C29.7133 31.48 29.72 31.76 29.72 32H21.46V31.36C21.7533 31.0533 22.1067 30.68 22.52 30.24C22.9467 29.8 23.3867 29.3133 23.84 28.78C24.2933 28.2467 24.74 27.68 25.18 27.08C25.6333 26.48 26.0333 25.8733 26.38 25.26C26.7267 24.6333 27.0067 24.0133 27.22 23.4C27.4467 22.7867 27.56 22.2 27.56 21.64C27.56 21.2533 27.5067 20.8867 27.4 20.54C27.3067 20.1933 27.16 19.8933 26.96 19.64C26.76 19.3733 26.5133 19.1667 26.22 19.02C25.94 18.8733 25.6133 18.8 25.24 18.8C24.96 18.8 24.7133 18.82 24.5 18.86C24.2867 18.9 24.0533 18.96 23.8 19.04L23.16 21.9Z" fill="#0D0C11"/>
</svg>
