<svg width="41" height="44" viewBox="0 0 41 44" fill="none" xmlns="http://www.w3.org/2000/svg">
<rect y="3" width="41" height="41" fill="white"/>
<path d="M14.9559 31.3C15.3293 31.3 15.6759 31.22 15.9959 31.06C16.3159 30.8867 16.5959 30.66 16.8359 30.38C17.0759 30.0867 17.2626 29.7533 17.3959 29.38C17.5426 29.0067 17.6159 28.6133 17.6159 28.2C17.6159 27.7067 17.5359 27.2733 17.3759 26.9C17.2293 26.5267 17.0226 26.22 16.7559 25.98C16.4893 25.7267 16.1759 25.54 15.8159 25.42C15.4693 25.2867 15.0893 25.22 14.6759 25.22H13.3759V24.68L16.7359 20.18L17.4159 19.48V19.4L16.3359 19.52H12.9559L12.1759 21.56H11.6759C11.6226 21.28 11.5693 20.98 11.5159 20.66C11.4759 20.34 11.4359 20.0267 11.3959 19.72C11.3559 19.4 11.3226 19.0933 11.2959 18.8C11.2693 18.5067 11.2559 18.24 11.2559 18H19.0759V18.62L15.7359 23.08L14.8759 23.96V24L15.5559 23.86C16.1826 23.8867 16.7426 24.0067 17.2359 24.22C17.7293 24.4333 18.1426 24.72 18.4759 25.08C18.8226 25.4267 19.0826 25.84 19.2559 26.32C19.4426 26.7867 19.5359 27.3 19.5359 27.86C19.5359 28.5267 19.4026 29.1333 19.1359 29.68C18.8693 30.2133 18.5093 30.6733 18.0559 31.06C17.6159 31.4333 17.1026 31.7267 16.5159 31.94C15.9426 32.14 15.3359 32.24 14.6959 32.24C14.3893 32.24 14.0626 32.2133 13.7159 32.16C13.3693 32.12 13.0293 32.0533 12.6959 31.96C12.3626 31.8667 12.0493 31.76 11.7559 31.64C11.4759 31.52 11.2359 31.38 11.0359 31.22L11.5959 29.42H11.9959C12.0759 29.5133 12.1826 29.6333 12.3159 29.78C12.4626 29.9267 12.6093 30.08 12.7559 30.24C12.9159 30.4 13.0693 30.56 13.2159 30.72C13.3626 30.88 13.4893 31.02 13.5959 31.14C13.7293 31.1667 13.9026 31.2 14.1159 31.24C14.3293 31.28 14.6093 31.3 14.9559 31.3ZM30.54 27.78C30.54 28.3933 30.4333 28.9733 30.22 29.52C30.0067 30.0533 29.7067 30.5267 29.32 30.94C28.9333 31.34 28.4667 31.66 27.92 31.9C27.3733 32.1267 26.7667 32.24 26.1 32.24C25.3533 32.24 24.6933 32.1133 24.12 31.86C23.5467 31.5933 23.06 31.2267 22.66 30.76C22.2733 30.2933 21.98 29.74 21.78 29.1C21.58 28.46 21.48 27.76 21.48 27C21.48 25.7467 21.6867 24.6 22.1 23.56C22.5133 22.5067 23.06 21.58 23.74 20.78C24.4333 19.9667 25.22 19.2933 26.1 18.76C26.9933 18.2267 27.92 17.8533 28.88 17.64L29.1 18.24C28.3933 18.4933 27.72 18.84 27.08 19.28C26.4533 19.7067 25.8867 20.2133 25.38 20.8C24.8867 21.3867 24.4733 22.0467 24.14 22.78C23.8067 23.5 23.6 24.28 23.52 25.12C23.7333 24.76 24.1133 24.4333 24.66 24.14C25.2067 23.8333 25.84 23.68 26.56 23.68C27.1333 23.68 27.6667 23.7733 28.16 23.96C28.6533 24.1467 29.0733 24.4133 29.42 24.76C29.7667 25.1067 30.04 25.5333 30.24 26.04C30.44 26.5467 30.54 27.1267 30.54 27.78ZM28.62 27.94C28.62 26.9933 28.3867 26.22 27.92 25.62C27.4667 25.02 26.8267 24.72 26 24.72C25.3733 24.72 24.8333 24.88 24.38 25.2C23.94 25.5067 23.6267 25.8533 23.44 26.24C23.4133 26.4267 23.4 26.6467 23.4 26.9C23.4 27.1533 23.4 27.3533 23.4 27.5C23.4 27.9267 23.4533 28.3667 23.56 28.82C23.68 29.26 23.8533 29.6667 24.08 30.04C24.32 30.4133 24.6133 30.72 24.96 30.96C25.32 31.2 25.7333 31.32 26.2 31.32C26.6267 31.32 26.9933 31.2267 27.3 31.04C27.6067 30.84 27.8533 30.58 28.04 30.26C28.24 29.94 28.3867 29.58 28.48 29.18C28.5733 28.7667 28.62 28.3533 28.62 27.94Z" fill="#0D0C11"/>
</svg>
