<svg width="41" height="44" viewBox="0 0 41 44" fill="none" xmlns="http://www.w3.org/2000/svg">
<rect y="3" width="41" height="41" fill="white"/>
<path d="M19.3759 32H14.1759V31.42C14.8293 31.1933 15.4426 31.0333 16.0159 30.94V28.14H9.91594V27.68L17.3159 17.76H17.8559V27.1H20.3959V28.14H17.8559V30.94C18.3759 31.0467 18.8826 31.2067 19.3759 31.42V32ZM16.0159 21.96L16.2359 20.52H16.1759L15.3959 21.96L12.0359 26.58L11.2359 27.24L12.6559 27.1H16.0159V21.96ZM30.04 32H24.84V31.42C25.4933 31.1933 26.1067 31.0333 26.68 30.94V28.14H20.58V27.68L27.98 17.76H28.52V27.1H31.06V28.14H28.52V30.94C29.04 31.0467 29.5467 31.2067 30.04 31.42V32ZM26.68 21.96L26.9 20.52H26.84L26.06 21.96L22.7 26.58L21.9 27.24L23.32 27.1H26.68V21.96Z" fill="#0D0C11"/>
</svg>
