<svg width="41" height="44" viewBox="0 0 41 44" fill="none" xmlns="http://www.w3.org/2000/svg">
<rect y="3" width="41" height="41" fill="white"/>
<path d="M20.288 31.3C20.6613 31.3 21.008 31.22 21.328 31.06C21.648 30.8867 21.928 30.66 22.168 30.38C22.408 30.0867 22.5946 29.7533 22.728 29.38C22.8746 29.0067 22.948 28.6133 22.948 28.2C22.948 27.7067 22.868 27.2733 22.708 26.9C22.5613 26.5267 22.3546 26.22 22.088 25.98C21.8213 25.7267 21.508 25.54 21.148 25.42C20.8013 25.2867 20.4213 25.22 20.008 25.22H18.708V24.68L22.068 20.18L22.748 19.48V19.4L21.668 19.52H18.288L17.508 21.56H17.008C16.9546 21.28 16.9013 20.98 16.848 20.66C16.808 20.34 16.768 20.0267 16.728 19.72C16.688 19.4 16.6546 19.0933 16.628 18.8C16.6013 18.5067 16.588 18.24 16.588 18H24.408V18.62L21.068 23.08L20.208 23.96V24L20.888 23.86C21.5146 23.8867 22.0746 24.0067 22.568 24.22C23.0613 24.4333 23.4746 24.72 23.808 25.08C24.1546 25.4267 24.4146 25.84 24.588 26.32C24.7746 26.7867 24.868 27.3 24.868 27.86C24.868 28.5267 24.7346 29.1333 24.468 29.68C24.2013 30.2133 23.8413 30.6733 23.388 31.06C22.948 31.4333 22.4346 31.7267 21.848 31.94C21.2746 32.14 20.668 32.24 20.028 32.24C19.7213 32.24 19.3946 32.2133 19.048 32.16C18.7013 32.12 18.3613 32.0533 18.028 31.96C17.6946 31.8667 17.3813 31.76 17.088 31.64C16.808 31.52 16.568 31.38 16.368 31.22L16.928 29.42H17.328C17.408 29.5133 17.5146 29.6333 17.648 29.78C17.7946 29.9267 17.9413 30.08 18.088 30.24C18.248 30.4 18.4013 30.56 18.548 30.72C18.6946 30.88 18.8213 31.02 18.928 31.14C19.0613 31.1667 19.2346 31.2 19.448 31.24C19.6613 31.28 19.9413 31.3 20.288 31.3Z" fill="#0D0C11"/>
</svg>
