<svg width="41" height="44" viewBox="0 0 41 44" fill="none" xmlns="http://www.w3.org/2000/svg">
<rect y="3" width="41" height="41" fill="white"/>
<path d="M19.8759 27.78C19.8759 28.3933 19.7693 28.9733 19.5559 29.52C19.3426 30.0533 19.0426 30.5267 18.6559 30.94C18.2693 31.34 17.8026 31.66 17.2559 31.9C16.7093 32.1267 16.1026 32.24 15.4359 32.24C14.6893 32.24 14.0293 32.1133 13.4559 31.86C12.8826 31.5933 12.3959 31.2267 11.9959 30.76C11.6093 30.2933 11.3159 29.74 11.1159 29.1C10.9159 28.46 10.8159 27.76 10.8159 27C10.8159 25.7467 11.0226 24.6 11.4359 23.56C11.8493 22.5067 12.3959 21.58 13.0759 20.78C13.7693 19.9667 14.5559 19.2933 15.4359 18.76C16.3293 18.2267 17.2559 17.8533 18.2159 17.64L18.4359 18.24C17.7293 18.4933 17.0559 18.84 16.4159 19.28C15.7893 19.7067 15.2226 20.2133 14.7159 20.8C14.2226 21.3867 13.8093 22.0467 13.4759 22.78C13.1426 23.5 12.9359 24.28 12.8559 25.12C13.0693 24.76 13.4493 24.4333 13.9959 24.14C14.5426 23.8333 15.1759 23.68 15.8959 23.68C16.4693 23.68 17.0026 23.7733 17.4959 23.96C17.9893 24.1467 18.4093 24.4133 18.7559 24.76C19.1026 25.1067 19.3759 25.5333 19.5759 26.04C19.7759 26.5467 19.8759 27.1267 19.8759 27.78ZM17.9559 27.94C17.9559 26.9933 17.7226 26.22 17.2559 25.62C16.8026 25.02 16.1626 24.72 15.3359 24.72C14.7093 24.72 14.1693 24.88 13.7159 25.2C13.2759 25.5067 12.9626 25.8533 12.7759 26.24C12.7493 26.4267 12.7359 26.6467 12.7359 26.9C12.7359 27.1533 12.7359 27.3533 12.7359 27.5C12.7359 27.9267 12.7893 28.3667 12.8959 28.82C13.0159 29.26 13.1893 29.6667 13.4159 30.04C13.6559 30.4133 13.9493 30.72 14.2959 30.96C14.6559 31.2 15.0693 31.32 15.5359 31.32C15.9626 31.32 16.3293 31.2267 16.6359 31.04C16.9426 30.84 17.1893 30.58 17.3759 30.26C17.5759 29.94 17.7226 29.58 17.8159 29.18C17.9093 28.7667 17.9559 28.3533 17.9559 27.94ZM30.54 27.78C30.54 28.3933 30.4333 28.9733 30.22 29.52C30.0067 30.0533 29.7067 30.5267 29.32 30.94C28.9333 31.34 28.4667 31.66 27.92 31.9C27.3733 32.1267 26.7667 32.24 26.1 32.24C25.3533 32.24 24.6933 32.1133 24.12 31.86C23.5467 31.5933 23.06 31.2267 22.66 30.76C22.2733 30.2933 21.98 29.74 21.78 29.1C21.58 28.46 21.48 27.76 21.48 27C21.48 25.7467 21.6867 24.6 22.1 23.56C22.5133 22.5067 23.06 21.58 23.74 20.78C24.4333 19.9667 25.22 19.2933 26.1 18.76C26.9933 18.2267 27.92 17.8533 28.88 17.64L29.1 18.24C28.3933 18.4933 27.72 18.84 27.08 19.28C26.4533 19.7067 25.8867 20.2133 25.38 20.8C24.8867 21.3867 24.4733 22.0467 24.14 22.78C23.8067 23.5 23.6 24.28 23.52 25.12C23.7333 24.76 24.1133 24.4333 24.66 24.14C25.2067 23.8333 25.84 23.68 26.56 23.68C27.1333 23.68 27.6667 23.7733 28.16 23.96C28.6533 24.1467 29.0733 24.4133 29.42 24.76C29.7667 25.1067 30.04 25.5333 30.24 26.04C30.44 26.5467 30.54 27.1267 30.54 27.78ZM28.62 27.94C28.62 26.9933 28.3867 26.22 27.92 25.62C27.4667 25.02 26.8267 24.72 26 24.72C25.3733 24.72 24.8333 24.88 24.38 25.2C23.94 25.5067 23.6267 25.8533 23.44 26.24C23.4133 26.4267 23.4 26.6467 23.4 26.9C23.4 27.1533 23.4 27.3533 23.4 27.5C23.4 27.9267 23.4533 28.3667 23.56 28.82C23.68 29.26 23.8533 29.6667 24.08 30.04C24.32 30.4133 24.6133 30.72 24.96 30.96C25.32 31.2 25.7333 31.32 26.2 31.32C26.6267 31.32 26.9933 31.2267 27.3 31.04C27.6067 30.84 27.8533 30.58 28.04 30.26C28.24 29.94 28.3867 29.58 28.48 29.18C28.5733 28.7667 28.62 28.3533 28.62 27.94Z" fill="#0D0C11"/>
</svg>
