<svg width="41" height="44" viewBox="0 0 41 44" fill="none" xmlns="http://www.w3.org/2000/svg">
<rect y="3" width="41" height="41" fill="white"/>
<path d="M17.828 21.9H17.328C17.1813 21.5133 17.028 21.06 16.868 20.54C16.7213 20.02 16.5946 19.5267 16.488 19.06C16.9546 18.66 17.5146 18.3467 18.168 18.12C18.8213 17.88 19.528 17.76 20.288 17.76C20.9546 17.76 21.528 17.8533 22.008 18.04C22.488 18.2267 22.8813 18.48 23.188 18.8C23.508 19.12 23.7413 19.4933 23.888 19.92C24.0346 20.3333 24.108 20.7667 24.108 21.22C24.108 21.9667 23.9346 22.7333 23.588 23.52C23.2413 24.3067 22.808 25.0733 22.288 25.82C21.7813 26.5533 21.228 27.2467 20.628 27.9C20.028 28.5533 19.4746 29.1267 18.968 29.62L18.128 30.4V30.48L19.248 30.36H22.688L23.668 28.12H24.168C24.1946 28.4133 24.2213 28.7333 24.248 29.08C24.2746 29.4267 24.2946 29.78 24.308 30.14C24.3346 30.4867 24.3546 30.8267 24.368 31.16C24.3813 31.48 24.388 31.76 24.388 32H16.128V31.36C16.4213 31.0533 16.7746 30.68 17.188 30.24C17.6146 29.8 18.0546 29.3133 18.508 28.78C18.9613 28.2467 19.408 27.68 19.848 27.08C20.3013 26.48 20.7013 25.8733 21.048 25.26C21.3946 24.6333 21.6746 24.0133 21.888 23.4C22.1146 22.7867 22.228 22.2 22.228 21.64C22.228 21.2533 22.1746 20.8867 22.068 20.54C21.9746 20.1933 21.828 19.8933 21.628 19.64C21.428 19.3733 21.1813 19.1667 20.888 19.02C20.608 18.8733 20.2813 18.8 19.908 18.8C19.628 18.8 19.3813 18.82 19.168 18.86C18.9546 18.9 18.7213 18.96 18.468 19.04L17.828 21.9Z" fill="#0D0C11"/>
</svg>
