<svg width="41" height="44" viewBox="0 0 41 44" fill="none" xmlns="http://www.w3.org/2000/svg">
<rect y="3" width="41" height="41" fill="white"/>
<path d="M14.9559 31.3C15.3293 31.3 15.6759 31.22 15.9959 31.06C16.3159 30.8867 16.5959 30.66 16.8359 30.38C17.0759 30.0867 17.2626 29.7533 17.3959 29.38C17.5426 29.0067 17.6159 28.6133 17.6159 28.2C17.6159 27.7067 17.5359 27.2733 17.3759 26.9C17.2293 26.5267 17.0226 26.22 16.7559 25.98C16.4893 25.7267 16.1759 25.54 15.8159 25.42C15.4693 25.2867 15.0893 25.22 14.6759 25.22H13.3759V24.68L16.7359 20.18L17.4159 19.48V19.4L16.3359 19.52H12.9559L12.1759 21.56H11.6759C11.6226 21.28 11.5693 20.98 11.5159 20.66C11.4759 20.34 11.4359 20.0267 11.3959 19.72C11.3559 19.4 11.3226 19.0933 11.2959 18.8C11.2693 18.5067 11.2559 18.24 11.2559 18H19.0759V18.62L15.7359 23.08L14.8759 23.96V24L15.5559 23.86C16.1826 23.8867 16.7426 24.0067 17.2359 24.22C17.7293 24.4333 18.1426 24.72 18.4759 25.08C18.8226 25.4267 19.0826 25.84 19.2559 26.32C19.4426 26.7867 19.5359 27.3 19.5359 27.86C19.5359 28.5267 19.4026 29.1333 19.1359 29.68C18.8693 30.2133 18.5093 30.6733 18.0559 31.06C17.6159 31.4333 17.1026 31.7267 16.5159 31.94C15.9426 32.14 15.3359 32.24 14.6959 32.24C14.3893 32.24 14.0626 32.2133 13.7159 32.16C13.3693 32.12 13.0293 32.0533 12.6959 31.96C12.3626 31.8667 12.0493 31.76 11.7559 31.64C11.4759 31.52 11.2359 31.38 11.0359 31.22L11.5959 29.42H11.9959C12.0759 29.5133 12.1826 29.6333 12.3159 29.78C12.4626 29.9267 12.6093 30.08 12.7559 30.24C12.9159 30.4 13.0693 30.56 13.2159 30.72C13.3626 30.88 13.4893 31.02 13.5959 31.14C13.7293 31.1667 13.9026 31.2 14.1159 31.24C14.3293 31.28 14.6093 31.3 14.9559 31.3ZM30.04 32H24.84V31.42C25.4933 31.1933 26.1067 31.0333 26.68 30.94V28.14H20.58V27.68L27.98 17.76H28.52V27.1H31.06V28.14H28.52V30.94C29.04 31.0467 29.5467 31.2067 30.04 31.42V32ZM26.68 21.96L26.9 20.52H26.84L26.06 21.96L22.7 26.58L21.9 27.24L23.32 27.1H26.68V21.96Z" fill="#0D0C11"/>
</svg>
