<svg width="42" height="44" viewBox="0 0 42 44" fill="none" xmlns="http://www.w3.org/2000/svg">
<rect y="3" width="42" height="41" fill="white"/>
<path d="M19.4559 16.9H19.9559C19.9426 17.1 19.9226 17.3267 19.8959 17.58C19.8826 17.82 19.8559 18.0667 19.8159 18.32C19.7759 18.56 19.7359 18.7933 19.6959 19.02C19.6559 19.2467 19.6093 19.4333 19.5559 19.58H14.6359L14.1559 23.44H15.4559C16.1226 23.44 16.7293 23.5333 17.2759 23.72C17.8359 23.8933 18.3093 24.16 18.6959 24.52C19.0959 24.8667 19.4026 25.2933 19.6159 25.8C19.8426 26.3067 19.9559 26.8867 19.9559 27.54C19.9559 28.3133 19.8226 28.9933 19.5559 29.58C19.2893 30.1667 18.9359 30.66 18.4959 31.06C18.0559 31.4467 17.5559 31.74 16.9959 31.94C16.4359 32.14 15.8559 32.24 15.2559 32.24C14.9893 32.24 14.7026 32.2133 14.3959 32.16C14.0893 32.12 13.7826 32.0533 13.4759 31.96C13.1826 31.8667 12.9026 31.76 12.6359 31.64C12.3693 31.5067 12.1426 31.3667 11.9559 31.22L12.5359 29.42H12.9359C13.0159 29.5133 13.1159 29.6333 13.2359 29.78C13.3559 29.9267 13.4759 30.08 13.5959 30.24C13.7293 30.4 13.8559 30.56 13.9759 30.72C14.1093 30.88 14.2293 31.02 14.3359 31.14C14.4693 31.1667 14.5893 31.2 14.6959 31.24C14.8159 31.28 14.9959 31.3 15.2359 31.3C15.6759 31.3 16.0759 31.2133 16.4359 31.04C16.8093 30.8667 17.1293 30.6333 17.3959 30.34C17.6626 30.0333 17.8693 29.68 18.0159 29.28C18.1626 28.88 18.2359 28.4467 18.2359 27.98C18.2359 27.4467 18.1359 26.9867 17.9359 26.6C17.7359 26.2 17.4626 25.88 17.1159 25.64C16.7693 25.3867 16.3626 25.2 15.8959 25.08C15.4426 24.96 14.9626 24.9067 14.4559 24.92L13.0359 24.94L13.8359 18H18.5959L19.4559 16.9ZM26.62 31.3C26.9933 31.3 27.34 31.22 27.66 31.06C27.98 30.8867 28.26 30.66 28.5 30.38C28.74 30.0867 28.9267 29.7533 29.06 29.38C29.2067 29.0067 29.28 28.6133 29.28 28.2C29.28 27.7067 29.2 27.2733 29.04 26.9C28.8933 26.5267 28.6867 26.22 28.42 25.98C28.1533 25.7267 27.84 25.54 27.48 25.42C27.1333 25.2867 26.7533 25.22 26.34 25.22H25.04V24.68L28.4 20.18L29.08 19.48V19.4L28 19.52H24.62L23.84 21.56H23.34C23.2867 21.28 23.2333 20.98 23.18 20.66C23.14 20.34 23.1 20.0267 23.06 19.72C23.02 19.4 22.9867 19.0933 22.96 18.8C22.9333 18.5067 22.92 18.24 22.92 18H30.74V18.62L27.4 23.08L26.54 23.96V24L27.22 23.86C27.8467 23.8867 28.4067 24.0067 28.9 24.22C29.3933 24.4333 29.8067 24.72 30.14 25.08C30.4867 25.4267 30.7467 25.84 30.92 26.32C31.1067 26.7867 31.2 27.3 31.2 27.86C31.2 28.5267 31.0667 29.1333 30.8 29.68C30.5333 30.2133 30.1733 30.6733 29.72 31.06C29.28 31.4333 28.7667 31.7267 28.18 31.94C27.6067 32.14 27 32.24 26.36 32.24C26.0533 32.24 25.7267 32.2133 25.38 32.16C25.0333 32.12 24.6933 32.0533 24.36 31.96C24.0267 31.8667 23.7133 31.76 23.42 31.64C23.14 31.52 22.9 31.38 22.7 31.22L23.26 29.42H23.66C23.74 29.5133 23.8467 29.6333 23.98 29.78C24.1267 29.9267 24.2733 30.08 24.42 30.24C24.58 30.4 24.7333 30.56 24.88 30.72C25.0267 30.88 25.1533 31.02 25.26 31.14C25.3933 31.1667 25.5667 31.2 25.78 31.24C25.9933 31.28 26.2733 31.3 26.62 31.3Z" fill="#0D0C11"/>
</svg>
