<svg aria-hidden="true" style="position: absolute; width: 0; height: 0; overflow: hidden;" version="1.1" xmlns="http://www.w3.org/2000/svg" xmlns:xlink="http://www.w3.org/1999/xlink">
<defs>
<symbol id="icon-1" viewBox="0 0 32 32">
<path fill="#fff" style="fill: var(--color1, #fff)" d="M1.091 2.182h29.818v29.818h-29.818v-29.818z"></path>
<path fill="#0d0c11" style="fill: var(--color2, #0d0c11)" d="M18.304 23.273h-4.247v-0.422c0.242-0.107 0.485-0.199 0.727-0.276 0.252-0.087 0.504-0.16 0.756-0.218v-7.142l0.058-0.858c-0.272 0.107-0.553 0.184-0.844 0.233-0.291 0.039-0.592 0.053-0.902 0.044l-0.073-0.349c0.446-0.145 0.907-0.325 1.382-0.538 0.475-0.223 0.916-0.499 1.324-0.829h0.364v9.44c0.242 0.058 0.485 0.131 0.727 0.218 0.242 0.078 0.485 0.17 0.727 0.276v0.422z"></path>
</symbol>
<symbol id="icon-2" viewBox="0 0 32 32">
<path fill="#fff" style="fill: var(--color1, #fff)" d="M1.091 2.182h29.818v29.818h-29.818v-29.818z"></path>
<path fill="#0d0c11" style="fill: var(--color2, #0d0c11)" d="M14.057 15.927h-0.364c-0.107-0.281-0.218-0.611-0.335-0.989-0.107-0.378-0.199-0.737-0.276-1.076 0.339-0.291 0.747-0.519 1.222-0.684 0.475-0.175 0.989-0.262 1.542-0.262 0.485 0 0.902 0.068 1.251 0.204s0.635 0.32 0.858 0.553c0.233 0.233 0.402 0.504 0.509 0.815 0.107 0.301 0.16 0.616 0.16 0.945 0 0.543-0.126 1.101-0.378 1.673s-0.567 1.13-0.945 1.673c-0.369 0.533-0.771 1.038-1.207 1.513s-0.839 0.892-1.207 1.251l-0.611 0.567v0.058l0.815-0.087h2.502l0.713-1.629h0.364c0.019 0.213 0.039 0.446 0.058 0.698s0.034 0.509 0.044 0.771c0.019 0.252 0.034 0.499 0.044 0.742 0.010 0.233 0.015 0.436 0.015 0.611h-6.007v-0.465c0.213-0.223 0.47-0.495 0.771-0.815 0.31-0.32 0.63-0.674 0.96-1.062s0.655-0.8 0.975-1.236c0.33-0.436 0.621-0.878 0.873-1.324 0.252-0.456 0.456-0.907 0.611-1.353 0.165-0.446 0.247-0.873 0.247-1.28 0-0.281-0.039-0.548-0.116-0.8-0.068-0.252-0.175-0.47-0.32-0.655-0.145-0.194-0.325-0.344-0.538-0.451-0.204-0.107-0.441-0.16-0.713-0.16-0.204 0-0.383 0.015-0.538 0.044s-0.325 0.073-0.509 0.131l-0.465 2.080z"></path>
</symbol>
<symbol id="icon-3" viewBox="0 0 32 32">
<path fill="#fff" style="fill: var(--color1, #fff)" d="M1.091 2.182h29.818v29.818h-29.818v-29.818z"></path>
<path fill="#0d0c11" style="fill: var(--color2, #0d0c11)" d="M15.846 22.764c0.272 0 0.524-0.058 0.756-0.175 0.233-0.126 0.436-0.291 0.611-0.495 0.175-0.213 0.31-0.456 0.407-0.727 0.107-0.271 0.16-0.558 0.16-0.858 0-0.359-0.058-0.674-0.175-0.945-0.107-0.271-0.257-0.495-0.451-0.669-0.194-0.184-0.422-0.32-0.684-0.407-0.252-0.097-0.528-0.145-0.829-0.145h-0.945v-0.393l2.444-3.273 0.495-0.509v-0.058l-0.785 0.087h-2.458l-0.567 1.484h-0.364c-0.039-0.204-0.078-0.422-0.116-0.655-0.029-0.233-0.058-0.461-0.087-0.684-0.029-0.233-0.053-0.456-0.073-0.669s-0.029-0.407-0.029-0.582h5.687v0.451l-2.429 3.244-0.625 0.64v0.029l0.495-0.102c0.456 0.019 0.863 0.107 1.222 0.262s0.659 0.364 0.902 0.625c0.252 0.252 0.441 0.553 0.567 0.902 0.136 0.339 0.204 0.713 0.204 1.12 0 0.485-0.097 0.926-0.291 1.324-0.194 0.388-0.456 0.722-0.785 1.004-0.32 0.271-0.693 0.485-1.12 0.64-0.417 0.145-0.858 0.218-1.324 0.218-0.223 0-0.461-0.019-0.713-0.058-0.252-0.029-0.499-0.078-0.742-0.145s-0.47-0.145-0.684-0.233c-0.204-0.087-0.378-0.189-0.524-0.305l0.407-1.309h0.291c0.058 0.068 0.136 0.155 0.233 0.262 0.107 0.107 0.213 0.218 0.32 0.335 0.116 0.116 0.228 0.233 0.335 0.349s0.199 0.218 0.276 0.305c0.097 0.019 0.223 0.044 0.378 0.073s0.359 0.044 0.611 0.044z"></path>
</symbol>
<symbol id="icon-4" viewBox="0 0 32 32">
<path fill="#fff" style="fill: var(--color1, #fff)" d="M1.091 2.182h29.818v29.818h-29.818v-29.818z"></path>
<path fill="#0d0c11" style="fill: var(--color2, #0d0c11)" d="M19.060 23.273h-3.782v-0.422c0.475-0.165 0.921-0.281 1.338-0.349v-2.036h-4.436v-0.335l5.382-7.215h0.393v6.793h1.847v0.756h-1.847v2.036c0.378 0.078 0.747 0.194 1.105 0.349v0.422zM16.617 15.971l0.16-1.047h-0.044l-0.567 1.047-2.444 3.36-0.582 0.48 1.033-0.102h2.444v-3.738z"></path>
</symbol>
<symbol id="icon-34" viewBox="0 0 32 32">
<path fill="#fff" style="fill: var(--color1, #fff)" d="M1.091 2.182h29.818v29.818h-29.818v-29.818z"></path>
<path fill="#0d0c11" style="fill: var(--color2, #0d0c11)" d="M11.968 22.764c0.272 0 0.524-0.058 0.756-0.175 0.233-0.126 0.436-0.291 0.611-0.495 0.175-0.213 0.31-0.456 0.407-0.727 0.107-0.271 0.16-0.558 0.16-0.858 0-0.359-0.058-0.674-0.175-0.945-0.107-0.271-0.257-0.495-0.451-0.669-0.194-0.184-0.422-0.32-0.684-0.407-0.252-0.097-0.528-0.145-0.829-0.145h-0.945v-0.393l2.444-3.273 0.495-0.509v-0.058l-0.785 0.087h-2.458l-0.567 1.484h-0.364c-0.039-0.204-0.078-0.422-0.116-0.655-0.029-0.233-0.058-0.461-0.087-0.684-0.029-0.233-0.053-0.456-0.073-0.669s-0.029-0.407-0.029-0.582h5.687v0.451l-2.429 3.244-0.625 0.64v0.029l0.495-0.102c0.456 0.019 0.863 0.107 1.222 0.262s0.659 0.364 0.902 0.625c0.252 0.252 0.441 0.553 0.567 0.902 0.136 0.339 0.204 0.713 0.204 1.12 0 0.485-0.097 0.926-0.291 1.324-0.194 0.388-0.456 0.722-0.785 1.004-0.32 0.271-0.693 0.485-1.12 0.64-0.417 0.145-0.858 0.218-1.324 0.218-0.223 0-0.461-0.019-0.713-0.058-0.252-0.029-0.499-0.078-0.742-0.145s-0.47-0.145-0.684-0.233c-0.204-0.087-0.378-0.189-0.524-0.305l0.407-1.309h0.291c0.058 0.068 0.136 0.155 0.233 0.262 0.107 0.107 0.213 0.218 0.32 0.335 0.116 0.116 0.228 0.233 0.335 0.349s0.199 0.218 0.276 0.305c0.097 0.019 0.223 0.044 0.378 0.073s0.359 0.044 0.611 0.044zM22.938 23.273h-3.782v-0.422c0.475-0.165 0.921-0.281 1.338-0.349v-2.036h-4.436v-0.335l5.382-7.215h0.393v6.793h1.847v0.756h-1.847v2.036c0.378 0.078 0.747 0.194 1.105 0.349v0.422zM20.495 15.971l0.16-1.047h-0.044l-0.567 1.047-2.444 3.36-0.582 0.48 1.033-0.102h2.444v-3.738z"></path>
</symbol>
<symbol id="icon-36" viewBox="0 0 32 32">
<path fill="#fff" style="fill: var(--color1, #fff)" d="M1.091 2.182h29.818v29.818h-29.818v-29.818z"></path>
<path fill="#0d0c11" style="fill: var(--color2, #0d0c11)" d="M11.968 22.764c0.272 0 0.524-0.058 0.756-0.175 0.233-0.126 0.436-0.291 0.611-0.495 0.175-0.213 0.31-0.456 0.407-0.727 0.107-0.271 0.16-0.558 0.16-0.858 0-0.359-0.058-0.674-0.175-0.945-0.107-0.271-0.257-0.495-0.451-0.669-0.194-0.184-0.422-0.32-0.684-0.407-0.252-0.097-0.528-0.145-0.829-0.145h-0.945v-0.393l2.444-3.273 0.495-0.509v-0.058l-0.785 0.087h-2.458l-0.567 1.484h-0.364c-0.039-0.204-0.078-0.422-0.116-0.655-0.029-0.233-0.058-0.461-0.087-0.684-0.029-0.233-0.053-0.456-0.073-0.669s-0.029-0.407-0.029-0.582h5.687v0.451l-2.429 3.244-0.625 0.64v0.029l0.495-0.102c0.456 0.019 0.863 0.107 1.222 0.262s0.659 0.364 0.902 0.625c0.252 0.252 0.441 0.553 0.567 0.902 0.136 0.339 0.204 0.713 0.204 1.12 0 0.485-0.097 0.926-0.291 1.324-0.194 0.388-0.456 0.722-0.785 1.004-0.32 0.271-0.693 0.485-1.12 0.64-0.417 0.145-0.858 0.218-1.324 0.218-0.223 0-0.461-0.019-0.713-0.058-0.252-0.029-0.499-0.078-0.742-0.145s-0.47-0.145-0.684-0.233c-0.204-0.087-0.378-0.189-0.524-0.305l0.407-1.309h0.291c0.058 0.068 0.136 0.155 0.233 0.262 0.107 0.107 0.213 0.218 0.32 0.335 0.116 0.116 0.228 0.233 0.335 0.349s0.199 0.218 0.276 0.305c0.097 0.019 0.223 0.044 0.378 0.073s0.359 0.044 0.611 0.044zM23.302 20.204c0 0.446-0.078 0.868-0.233 1.265-0.155 0.388-0.373 0.732-0.655 1.033-0.281 0.291-0.621 0.524-1.018 0.698-0.398 0.165-0.839 0.247-1.324 0.247-0.543 0-1.023-0.092-1.44-0.276-0.417-0.194-0.771-0.461-1.062-0.8-0.281-0.339-0.495-0.742-0.64-1.207s-0.218-0.975-0.218-1.527c0-0.912 0.15-1.745 0.451-2.502 0.301-0.766 0.698-1.44 1.193-2.022 0.504-0.591 1.076-1.081 1.716-1.469 0.65-0.388 1.324-0.659 2.022-0.815l0.16 0.436c-0.514 0.184-1.004 0.436-1.469 0.756-0.456 0.31-0.868 0.679-1.236 1.105-0.359 0.427-0.659 0.907-0.902 1.44-0.242 0.524-0.393 1.091-0.451 1.702 0.155-0.262 0.431-0.499 0.829-0.713 0.398-0.223 0.858-0.335 1.382-0.335 0.417 0 0.805 0.068 1.164 0.204s0.664 0.33 0.916 0.582c0.252 0.252 0.451 0.562 0.596 0.931s0.218 0.79 0.218 1.265zM21.905 20.32c0-0.689-0.17-1.251-0.509-1.687-0.33-0.436-0.795-0.655-1.396-0.655-0.456 0-0.849 0.116-1.178 0.349-0.32 0.223-0.548 0.475-0.684 0.756-0.019 0.136-0.029 0.296-0.029 0.48s0 0.33 0 0.436c0 0.31 0.039 0.63 0.116 0.96 0.087 0.32 0.213 0.616 0.378 0.887 0.175 0.271 0.388 0.495 0.64 0.669 0.262 0.175 0.562 0.262 0.902 0.262 0.31 0 0.577-0.068 0.8-0.204 0.223-0.145 0.402-0.335 0.538-0.567 0.145-0.233 0.252-0.495 0.32-0.785 0.068-0.301 0.102-0.601 0.102-0.902z"></path>
</symbol>
<symbol id="icon-42" viewBox="0 0 32 32">
<path fill="#fff" style="fill: var(--color1, #fff)" d="M1.091 2.182h29.818v29.818h-29.818v-29.818z"></path>
<path fill="#0d0c11" style="fill: var(--color2, #0d0c11)" d="M15.182 23.273h-3.782v-0.422c0.475-0.165 0.921-0.281 1.338-0.349v-2.036h-4.436v-0.335l5.382-7.215h0.393v6.793h1.847v0.756h-1.847v2.036c0.378 0.078 0.747 0.194 1.105 0.349v0.422zM12.739 15.971l0.16-1.047h-0.044l-0.567 1.047-2.444 3.36-0.582 0.48 1.033-0.102h2.444v-3.738zM17.935 15.927h-0.364c-0.107-0.281-0.218-0.611-0.335-0.989-0.107-0.378-0.199-0.737-0.276-1.076 0.339-0.291 0.747-0.519 1.222-0.684 0.475-0.175 0.989-0.262 1.542-0.262 0.485 0 0.902 0.068 1.251 0.204s0.635 0.32 0.858 0.553c0.233 0.233 0.402 0.504 0.509 0.815 0.107 0.301 0.16 0.616 0.16 0.945 0 0.543-0.126 1.101-0.378 1.673s-0.567 1.13-0.945 1.673c-0.369 0.533-0.771 1.038-1.207 1.513s-0.839 0.892-1.207 1.251l-0.611 0.567v0.058l0.815-0.087h2.502l0.713-1.629h0.364c0.019 0.213 0.039 0.446 0.058 0.698s0.034 0.509 0.044 0.771c0.019 0.252 0.034 0.499 0.044 0.742 0.010 0.233 0.015 0.436 0.015 0.611h-6.007v-0.465c0.213-0.223 0.47-0.495 0.771-0.815 0.31-0.32 0.63-0.674 0.96-1.062s0.655-0.8 0.975-1.236c0.33-0.436 0.621-0.878 0.873-1.324 0.252-0.456 0.456-0.907 0.611-1.353 0.165-0.446 0.247-0.873 0.247-1.28 0-0.281-0.039-0.548-0.116-0.8-0.068-0.252-0.175-0.47-0.32-0.655-0.145-0.194-0.325-0.344-0.538-0.451-0.204-0.107-0.441-0.16-0.713-0.16-0.204 0-0.383 0.015-0.538 0.044s-0.325 0.073-0.509 0.131l-0.465 2.080z"></path>
</symbol>
<symbol id="icon-44" viewBox="0 0 32 32">
<path fill="#fff" style="fill: var(--color1, #fff)" d="M1.091 2.182h29.818v29.818h-29.818v-29.818z"></path>
<path fill="#0d0c11" style="fill: var(--color2, #0d0c11)" d="M15.182 23.273h-3.782v-0.422c0.475-0.165 0.921-0.281 1.338-0.349v-2.036h-4.436v-0.335l5.382-7.215h0.393v6.793h1.847v0.756h-1.847v2.036c0.378 0.078 0.747 0.194 1.105 0.349v0.422zM12.739 15.971l0.16-1.047h-0.044l-0.567 1.047-2.444 3.36-0.582 0.48 1.033-0.102h2.444v-3.738zM22.938 23.273h-3.782v-0.422c0.475-0.165 0.921-0.281 1.338-0.349v-2.036h-4.436v-0.335l5.382-7.215h0.393v6.793h1.847v0.756h-1.847v2.036c0.378 0.078 0.747 0.194 1.105 0.349v0.422zM20.495 15.971l0.16-1.047h-0.044l-0.567 1.047-2.444 3.36-0.582 0.48 1.033-0.102h2.444v-3.738z"></path>
</symbol>
<symbol id="icon-53" viewBox="0 0 32 32">
<path fill="#fff" style="fill: var(--color1, #fff)" d="M0.727 2.182h30.545v29.818h-30.545v-29.818z"></path>
<path fill="#0d0c11" style="fill: var(--color2, #0d0c11)" d="M14.877 12.291h0.364c-0.010 0.145-0.024 0.31-0.044 0.495-0.010 0.175-0.029 0.354-0.058 0.538-0.029 0.175-0.058 0.344-0.087 0.509s-0.063 0.301-0.102 0.407h-3.578l-0.349 2.807h0.945c0.485 0 0.926 0.068 1.324 0.204 0.407 0.126 0.752 0.32 1.033 0.582 0.291 0.252 0.514 0.562 0.669 0.931 0.165 0.369 0.247 0.79 0.247 1.265 0 0.562-0.097 1.057-0.291 1.484s-0.451 0.785-0.771 1.076c-0.32 0.281-0.684 0.495-1.091 0.64s-0.829 0.218-1.265 0.218c-0.194 0-0.402-0.019-0.625-0.058-0.223-0.029-0.446-0.078-0.669-0.145-0.213-0.068-0.417-0.145-0.611-0.233-0.194-0.097-0.359-0.199-0.495-0.305l0.422-1.309h0.291c0.058 0.068 0.131 0.155 0.218 0.262s0.175 0.218 0.262 0.335c0.097 0.116 0.189 0.233 0.276 0.349 0.097 0.116 0.184 0.218 0.262 0.305 0.097 0.019 0.184 0.044 0.262 0.073 0.087 0.029 0.218 0.044 0.393 0.044 0.32 0 0.611-0.063 0.873-0.189 0.272-0.126 0.504-0.296 0.698-0.509 0.194-0.223 0.344-0.48 0.451-0.771s0.16-0.606 0.16-0.945c0-0.388-0.073-0.722-0.218-1.004-0.145-0.291-0.344-0.524-0.596-0.698-0.252-0.184-0.548-0.32-0.887-0.407-0.33-0.087-0.679-0.126-1.047-0.116l-1.033 0.015 0.582-5.047h3.462l0.625-0.8zM20.087 22.764c0.271 0 0.524-0.058 0.756-0.175 0.233-0.126 0.436-0.291 0.611-0.495 0.175-0.213 0.31-0.456 0.407-0.727 0.107-0.271 0.16-0.558 0.16-0.858 0-0.359-0.058-0.674-0.175-0.945-0.107-0.271-0.257-0.495-0.451-0.669-0.194-0.184-0.422-0.32-0.684-0.407-0.252-0.097-0.529-0.145-0.829-0.145h-0.945v-0.393l2.444-3.273 0.495-0.509v-0.058l-0.785 0.087h-2.458l-0.567 1.484h-0.364c-0.039-0.204-0.078-0.422-0.116-0.655-0.029-0.233-0.058-0.461-0.087-0.684-0.029-0.233-0.053-0.456-0.073-0.669s-0.029-0.407-0.029-0.582h5.687v0.451l-2.429 3.244-0.625 0.64v0.029l0.495-0.102c0.456 0.019 0.863 0.107 1.222 0.262s0.659 0.364 0.902 0.625c0.252 0.252 0.441 0.553 0.567 0.902 0.136 0.339 0.204 0.713 0.204 1.12 0 0.485-0.097 0.926-0.291 1.324-0.194 0.388-0.456 0.722-0.785 1.004-0.32 0.271-0.693 0.485-1.12 0.64-0.417 0.145-0.858 0.218-1.324 0.218-0.223 0-0.461-0.019-0.713-0.058-0.252-0.029-0.499-0.078-0.742-0.145s-0.47-0.145-0.684-0.233c-0.204-0.087-0.378-0.189-0.524-0.305l0.407-1.309h0.291c0.058 0.068 0.136 0.155 0.233 0.262 0.107 0.107 0.213 0.218 0.32 0.335 0.116 0.116 0.228 0.233 0.335 0.349s0.199 0.218 0.276 0.305c0.097 0.019 0.223 0.044 0.378 0.073s0.359 0.044 0.611 0.044z"></path>
</symbol>
<symbol id="icon-66" viewBox="0 0 32 32">
<path fill="#fff" style="fill: var(--color1, #fff)" d="M1.091 2.182h29.818v29.818h-29.818v-29.818z"></path>
<path fill="#0d0c11" style="fill: var(--color2, #0d0c11)" d="M15.546 20.204c0 0.446-0.078 0.868-0.233 1.265-0.155 0.388-0.373 0.732-0.655 1.033-0.281 0.291-0.621 0.524-1.018 0.698-0.398 0.165-0.839 0.247-1.324 0.247-0.543 0-1.023-0.092-1.44-0.276-0.417-0.194-0.771-0.461-1.062-0.8-0.281-0.339-0.495-0.742-0.64-1.207s-0.218-0.975-0.218-1.527c0-0.912 0.15-1.745 0.451-2.502 0.301-0.766 0.698-1.44 1.193-2.022 0.504-0.591 1.076-1.081 1.716-1.469 0.65-0.388 1.324-0.659 2.022-0.815l0.16 0.436c-0.514 0.184-1.004 0.436-1.469 0.756-0.456 0.31-0.868 0.679-1.236 1.105-0.359 0.427-0.659 0.907-0.902 1.44-0.242 0.524-0.393 1.091-0.451 1.702 0.155-0.262 0.432-0.499 0.829-0.713 0.398-0.223 0.858-0.335 1.382-0.335 0.417 0 0.805 0.068 1.164 0.204s0.664 0.33 0.916 0.582c0.252 0.252 0.451 0.562 0.596 0.931s0.218 0.79 0.218 1.265zM14.15 20.32c0-0.689-0.17-1.251-0.509-1.687-0.33-0.436-0.795-0.655-1.396-0.655-0.456 0-0.848 0.116-1.178 0.349-0.32 0.223-0.548 0.475-0.684 0.756-0.019 0.136-0.029 0.296-0.029 0.48s0 0.33 0 0.436c0 0.31 0.039 0.63 0.116 0.96 0.087 0.32 0.213 0.616 0.378 0.887 0.175 0.271 0.388 0.495 0.64 0.669 0.262 0.175 0.562 0.262 0.902 0.262 0.31 0 0.577-0.068 0.8-0.204 0.223-0.145 0.402-0.335 0.538-0.567 0.145-0.233 0.252-0.495 0.32-0.785 0.068-0.301 0.102-0.601 0.102-0.902zM23.302 20.204c0 0.446-0.078 0.868-0.233 1.265-0.155 0.388-0.373 0.732-0.655 1.033-0.281 0.291-0.621 0.524-1.018 0.698-0.398 0.165-0.839 0.247-1.324 0.247-0.543 0-1.023-0.092-1.44-0.276-0.417-0.194-0.771-0.461-1.062-0.8-0.281-0.339-0.495-0.742-0.64-1.207s-0.218-0.975-0.218-1.527c0-0.912 0.15-1.745 0.451-2.502 0.301-0.766 0.698-1.44 1.193-2.022 0.504-0.591 1.076-1.081 1.716-1.469 0.65-0.388 1.324-0.659 2.022-0.815l0.16 0.436c-0.514 0.184-1.004 0.436-1.469 0.756-0.456 0.31-0.868 0.679-1.236 1.105-0.359 0.427-0.659 0.907-0.902 1.44-0.242 0.524-0.393 1.091-0.451 1.702 0.155-0.262 0.431-0.499 0.829-0.713 0.398-0.223 0.858-0.335 1.382-0.335 0.417 0 0.805 0.068 1.164 0.204s0.664 0.33 0.916 0.582c0.252 0.252 0.451 0.562 0.596 0.931s0.218 0.79 0.218 1.265zM21.905 20.32c0-0.689-0.17-1.251-0.509-1.687-0.33-0.436-0.795-0.655-1.396-0.655-0.456 0-0.849 0.116-1.178 0.349-0.32 0.223-0.548 0.475-0.684 0.756-0.019 0.136-0.029 0.296-0.029 0.48s0 0.33 0 0.436c0 0.31 0.039 0.63 0.116 0.96 0.087 0.32 0.213 0.616 0.378 0.887 0.175 0.271 0.388 0.495 0.64 0.669 0.262 0.175 0.562 0.262 0.902 0.262 0.31 0 0.577-0.068 0.8-0.204 0.223-0.145 0.402-0.335 0.538-0.567 0.145-0.233 0.252-0.495 0.32-0.785 0.068-0.301 0.102-0.601 0.102-0.902z"></path>
</symbol>
<symbol id="icon-brain" viewBox="0 0 32 32">
<path d="M0 0.333h32v31.333h-32v-31.333z"></path>
</symbol>
<symbol id="icon-close" viewBox="0 0 32 32">
<path fill="#ffc700" style="fill: var(--color3, #ffc700)" d="M32 3.223l-3.223-3.223-12.777 12.777-12.777-12.777-3.223 3.223 12.777 12.777-12.777 12.777 3.223 3.223 12.777-12.777 12.777 12.777 3.223-3.223-12.777-12.777 12.777-12.777z"></path>
</symbol>
<symbol id="icon-menu" viewBox="0 0 32 32">
<path fill="#696969" style="fill: var(--color4, #696969)" d="M0 26.667h32v-3.556h-32v3.556zM0 17.778h32v-3.556h-32v3.556zM0 5.333v3.556h32v-3.556h-32z"></path>
</symbol>
<symbol id="icon-quotes-down" viewBox="0 0 32 32">
<path fill="#fff" style="fill: var(--color1, #fff)" d="M24.348-0c1.391 0 2.69 0.533 3.896 1.6 1.159 1.113 2.087 2.551 2.783 4.313 0.649 1.762 0.974 3.641 0.974 5.635 0 3.061-0.533 5.936-1.6 8.626-1.113 2.736-2.458 5.032-4.035 6.887-1.577 1.901-3.084 3.246-4.522 4.035h-0.070l-2.435-2.226v-0.974c1.159-1.067 2.249-2.597 3.27-4.591 1.020-1.948 1.53-4.36 1.53-7.235 0-1.484-0.209-2.69-0.626-3.617s-1.043-1.948-1.878-3.061c-0.696-0.881-1.206-1.646-1.53-2.296s-0.487-1.438-0.487-2.365c0-1.391 0.464-2.528 1.391-3.409 0.881-0.881 1.994-1.322 3.339-1.322zM5.009-0c1.391 0 2.667 0.533 3.826 1.6 1.159 1.113 2.087 2.551 2.783 4.313 0.649 1.762 0.974 3.641 0.974 5.635 0 3.061-0.533 5.936-1.6 8.626-1.113 2.736-2.458 5.055-4.035 6.957s-3.084 3.223-4.522 3.965h-0.070l-2.365-2.226v-0.974c1.159-1.067 2.249-2.597 3.27-4.591 1.020-1.948 1.53-4.36 1.53-7.235 0-1.484-0.209-2.69-0.626-3.617s-1.043-1.948-1.878-3.061c-0.696-0.881-1.206-1.646-1.53-2.296s-0.487-1.438-0.487-2.365c0-1.391 0.464-2.528 1.391-3.409 0.881-0.881 1.994-1.322 3.339-1.322z"></path>
</symbol>
<symbol id="icon-quotes-up" viewBox="0 0 32 32">
<path fill="#fff" style="fill: var(--color1, #fff)" d="M7.798 30.867c-1.333 0-2.578-0.511-3.733-1.533-1.111-1.067-2-2.444-2.667-4.133-0.622-1.689-0.933-3.489-0.933-5.4 0-2.933 0.511-5.689 1.533-8.267 1.067-2.622 2.356-4.822 3.867-6.6 1.511-1.822 2.956-3.111 4.333-3.867h0.067l2.333 2.133v0.933c-1.111 1.022-2.156 2.489-3.133 4.4-0.978 1.867-1.467 4.178-1.467 6.933 0 1.422 0.2 2.578 0.6 3.467s1 1.867 1.8 2.933c0.667 0.844 1.156 1.578 1.467 2.2s0.467 1.378 0.467 2.267c0 1.333-0.444 2.422-1.333 3.267-0.844 0.844-1.911 1.267-3.2 1.267zM26.331 30.867c-1.333 0-2.556-0.511-3.667-1.533-1.111-1.067-2-2.444-2.667-4.133-0.622-1.689-0.933-3.489-0.933-5.4 0-2.933 0.511-5.689 1.533-8.267 1.067-2.622 2.355-4.844 3.867-6.667s2.956-3.089 4.333-3.8h0.067l2.267 2.133v0.933c-1.111 1.022-2.155 2.489-3.133 4.4-0.978 1.867-1.467 4.178-1.467 6.933 0 1.422 0.2 2.578 0.6 3.467s1 1.867 1.8 2.933c0.667 0.844 1.155 1.578 1.467 2.2s0.467 1.378 0.467 2.267c0 1.333-0.445 2.422-1.333 3.267-0.845 0.844-1.911 1.267-3.2 1.267z"></path>
</symbol>
<symbol id="icon-smallsquare-frame" viewBox="0 0 32 32">
<path fill="none" stroke="#ffc700" style="stroke: var(--color3, #ffc700)" stroke-linejoin="miter" stroke-linecap="butt" stroke-miterlimit="4" stroke-width="4.6829" d="M2.341 2.341h27.317v27.317h-27.317v-27.317z"></path>
</symbol>
<symbol id="icon-square-black" viewBox="0 0 32 32">
<path d="M0 0h32v32h-32v-32z"></path>
</symbol>
<symbol id="icon-square-blue" viewBox="0 0 32 32">
<path fill="#46b3ac" style="fill: var(--color5, #46b3ac)" d="M0 0h32v32h-32v-32z"></path>
</symbol>
<symbol id="icon-square-brown" viewBox="0 0 32 32">
<path fill="#a95403" style="fill: var(--color6, #a95403)" d="M0 0h32v32h-32v-32z"></path>
</symbol>
<symbol id="icon-square-dark-blue" viewBox="0 0 32 32">
<path fill="#0000a9" style="fill: var(--color7, #0000a9)" d="M0 0h32v32h-32v-32z"></path>
</symbol>
<symbol id="icon-square-frame" viewBox="0 0 32 32">
<path fill="none" stroke="#ffc700" style="stroke: var(--color3, #ffc700)" stroke-linejoin="miter" stroke-linecap="butt" stroke-miterlimit="4" stroke-width="2.3704" d="M1.185 1.185h29.63v29.63h-29.63v-29.63z"></path>
</symbol>
<symbol id="icon-square-green" viewBox="0 0 32 32">
<path fill="#00a701" style="fill: var(--color8, #00a701)" d="M0 0h32v32h-32v-32z"></path>
</symbol>
<symbol id="icon-square-grey" viewBox="0 0 32 32">
<path fill="#a8a8a8" style="fill: var(--color9, #a8a8a8)" d="M0 0h32v32h-32v-32z"></path>
</symbol>
<symbol id="icon-square-red" viewBox="0 0 32 32">
<path fill="#f60100" style="fill: var(--color10, #f60100)" d="M0 0h32v32h-32v-32z"></path>
</symbol>
<symbol id="icon-square-violet" viewBox="0 0 32 32">
<path fill="#850068" style="fill: var(--color11, #850068)" d="M0 0h32v32h-32v-32z"></path>
</symbol>
<symbol id="icon-square-yellow" viewBox="0 0 32 32">
<path fill="#fdff19" style="fill: var(--color12, #fdff19)" d="M0 0h32v32h-32v-32z"></path>
</symbol>
<symbol id="icon-up" viewBox="0 0 32 32">
<path fill="#fff" style="fill: var(--color1, #fff)" d="M32 16c0 8.837-7.163 16-16 16s-16-7.163-16-16c0-8.837 7.163-16 16-16s16 7.163 16 16z"></path>
<path fill="#0c0b10" style="fill: var(--color13, #0c0b10)" d="M16.909 23.273v-11.064l5.082 5.082 1.282-1.291-7.273-7.273-7.273 7.273 1.282 1.282 5.082-5.073v11.064h1.818z"></path>
</symbol>
<symbol id="icon-phone" viewBox="0 0 32 32">
<path fill="#fff" style="fill: var(--color1, #fff)" d="M22.111 16.778c-0.062 0.093-0.062 0.187-0.093 0.311-0.031 0.404 0.28 0.777 0.684 0.808s0.777-0.28 0.809-0.684c0-0.093 0-0.187 0.031-0.342 0-0.155 0-0.249 0-0.342 0-0.902-0.156-1.773-0.435-2.612-0.373-1.088-1.026-2.053-1.804-2.861-0.964-0.964-2.146-1.648-3.483-2.021-0.622-0.155-1.306-0.249-1.959-0.249-0.218 0-0.435 0-0.684 0.031-0.218 0.031-0.435 0.062-0.653 0.093-0.404 0.062-0.684 0.466-0.591 0.84 0.062 0.404 0.466 0.684 0.84 0.591 0.187-0.031 0.342-0.062 0.529-0.062 0.031 0 0.062 0 0.093 0 0.155 0 0.311-0.031 0.466-0.031 1.71 0 3.296 0.684 4.416 1.835 1.12 1.12 1.804 2.643 1.835 4.354v0.062c0 0.124 0 0.218 0 0.28z"></path>
<path fill="#fff" style="fill: var(--color1, #fff)" d="M26.216 17.462c-0.031 0.404 0.28 0.777 0.684 0.808s0.777-0.28 0.808-0.684c0.031-0.342 0.031-0.684 0.031-1.026 0-0.684-0.062-1.337-0.155-1.99-0.404-2.488-1.617-4.727-3.328-6.437-1.959-1.959-4.571-3.234-7.464-3.452-0.311-0.031-0.653-0.031-0.964-0.031-0.342 0-0.684 0-1.026 0.031s-0.684 0.062-1.026 0.124c-0.404 0.062-0.684 0.466-0.591 0.84 0.062 0.404 0.467 0.684 0.84 0.591 0.218-0.031 0.404-0.062 0.622-0.093 0.093 0 0.187-0.031 0.28-0.031 0.311-0.031 0.622-0.031 0.902-0.031 1.057 0 2.053 0.155 3.017 0.435 1.679 0.498 3.172 1.399 4.385 2.612 0.995 0.995 1.804 2.208 2.332 3.514 0.466 1.182 0.746 2.488 0.746 3.856 0 0.093 0 0.218 0 0.311-0.062 0.249-0.093 0.435-0.093 0.653z"></path>
<path fill="#fff" style="fill: var(--color1, #fff)" d="M27.273 5.147c-2.954-2.954-6.997-4.758-11.475-4.758-0.467 0-0.933 0.031-1.399 0.062s-0.933 0.093-1.399 0.187c-0.404 0.062-0.684 0.466-0.591 0.84 0.062 0.404 0.467 0.684 0.84 0.591 0.218-0.031 0.404-0.062 0.622-0.093s0.435-0.062 0.653-0.062 0.84-0.062 1.275-0.062c4.043 0 7.712 1.648 10.387 4.292 2.643 2.643 4.292 6.313 4.292 10.387 0 0.218 0 0.466 0 0.684 0 0.187-0.031 0.373-0.031 0.591-0.031 0.404 0.28 0.777 0.684 0.808s0.777-0.28 0.809-0.684c0.031-0.466 0.062-0.933 0.062-1.368 0-4.447-1.804-8.49-4.727-11.413z"></path>
<path fill="#fff" style="fill: var(--color1, #fff)" d="M30.849 23.993l-5.504-2.954c-1.835-0.995-1.897-0.342-3.825 1.71-0.466 0.498-1.337 1.804-2.363 1.555-2.146-0.529-6.157-3.67-7.464-5.1-0.622-0.684-3.296-3.949-3.328-5.007-0.062-1.617 3.483-2.426 2.332-5.504l-2.457-5.504c-2.301-5.287-8.739 3.172-8.21 7.122 1.368 9.734 18.441 25.47 27.958 20.276 2.115-1.182 4.976-5.318 2.861-6.593z"></path>
</symbol>
</defs>
</svg>
